<svg width="78" height="79" viewBox="0 0 78 79" fill="none" xmlns="http://www.w3.org/2000/svg">
<path d="M53.7517 30.2373C52.2409 29.6797 50.6439 29.3999 49.036 29.4111C43.836 29.4111 40.1635 32.0641 40.1375 35.8726C40.105 38.6705 42.7472 40.2472 44.746 41.1821C46.7967 42.1432 47.4825 42.7489 47.476 43.608C47.463 44.9148 45.838 45.5073 44.3267 45.5073C42.25 45.5073 41.1157 45.2143 39.3705 44.4803L38.7237 44.1742L37.986 48.5587C39.2502 49.0919 41.5285 49.5495 43.8815 49.589C49.4097 49.589 53.0237 46.9523 53.066 42.9003C53.1115 40.6653 51.6815 38.9766 48.672 37.581C46.8422 36.6758 45.708 36.0701 45.708 35.1517C45.708 34.3387 46.6797 33.4697 48.711 33.4697C50.0629 33.4366 51.4064 33.6934 52.6533 34.2235L53.1407 34.444L53.8785 30.2076L53.7517 30.2373ZM67.2458 29.7666H63.1833C61.919 29.7666 60.9668 30.1188 60.4143 31.3893L52.6012 49.3158H58.1295L59.2345 46.3763L65.9815 46.3829C66.1408 47.0708 66.6283 49.3158 66.6283 49.3158H71.5033L67.2458 29.7666ZM32.6592 29.602H37.9275L34.632 49.1611H29.3702L32.6592 29.5954V29.602ZM19.2855 40.3822L19.8315 43.0978L24.9795 29.7666H30.5597L22.269 49.2894H16.7017L12.1518 32.7587C12.0781 32.4861 11.905 32.252 11.6675 32.1036C10.0276 31.2456 8.28992 30.5945 6.4935 30.1648L6.565 29.7534H15.0442C16.1947 29.7995 17.121 30.1648 17.4297 31.4091L19.2822 40.3921V40.3822H19.2855ZM60.7458 42.3769L62.8453 36.9062C62.8193 36.9654 63.2775 35.7771 63.544 35.0431L63.9048 36.7317L65.1235 42.3736H60.7425V42.3769H60.7458Z" fill="#7044CC"/>
</svg>
