<svg width="44" height="44" viewBox="0 0 44 44" fill="none" xmlns="http://www.w3.org/2000/svg">
<path fill-rule="evenodd" clip-rule="evenodd" d="M22 37C30.2843 37 37 30.2843 37 22C37 13.7157 30.2843 7 22 7C13.7157 7 7 13.7157 7 22C7 30.2843 13.7157 37 22 37Z" fill="#EBEDF2"/>
<path d="M16.9063 26C16.5234 26.375 16.5078 27.0625 16.9141 27.4609C17.3125 27.8594 18 27.8438 18.375 27.4688L22 23.8438L25.625 27.4609C26.0156 27.8516 26.6875 27.8594 27.0859 27.4531C27.4844 27.0547 27.4844 26.3828 27.0938 25.9922L23.4688 22.375L27.0938 18.75C27.4844 18.3594 27.4844 17.6875 27.0859 17.2891C26.6875 16.8828 26.0156 16.8906 25.625 17.2812L22 20.8984L18.375 17.2734C18 16.8984 17.3125 16.8828 16.9141 17.2812C16.5078 17.6797 16.5234 18.3672 16.9063 18.75L20.5313 22.375L16.9063 26Z" fill="#C6C8CC"/>
</svg>
