<svg width="45" height="62" viewBox="0 0 45 62" fill="none" xmlns="http://www.w3.org/2000/svg">
<g clip-path="url(#clip0_1_138)">
<path d="M27.7397 1.33539H10.2424V3.24308H27.7397V1.33539Z" fill="#7044CC"/>
<path d="M27.7397 6.67694H10.2424V8.58463H27.7397V6.67694Z" fill="#7044CC"/>
<path d="M7.39727 8.44154H0.284515V1.33539H7.39727V8.44154ZM2.18125 6.53385H5.50053V3.24308H2.18125V6.53385Z" fill="#7044CC"/>
<path d="M44.5258 45.1169H33.0032V43.2092H42.6291V30.6184H1.89673V43.2092H11.8546V45.1169H0V28.7108H44.5258V45.1169Z" fill="#7044CC"/>
<path d="M33.0506 35.96H11.4278V37.8677H33.0506V35.96Z" fill="#7044CC"/>
<path d="M45 10.54H30.5848V0H45V10.54ZM32.4816 8.63231H43.1033V1.90769H32.4816V8.63231Z" fill="#7044CC"/>
<path d="M40.9694 4.2923H34.6154V6.19999H40.9694V4.2923Z" fill="#7044CC"/>
<path d="M27.7397 15.2139H10.2424V17.1216H27.7397V15.2139Z" fill="#7044CC"/>
<path d="M27.7397 20.5554H10.2424V22.4631H27.7397V20.5554Z" fill="#7044CC"/>
<path d="M7.39727 22.32H0.284515V15.2139H7.39727V22.32ZM2.18125 20.4123H5.50053V17.1216H2.18125V20.4123Z" fill="#7044CC"/>
<path d="M45 24.4185H30.5848V13.8785H45V24.4185ZM32.4816 22.5108H43.1033V15.7862H32.4816V22.5108Z" fill="#7044CC"/>
<path d="M40.9694 18.1708H34.6154V20.0785H40.9694V18.1708Z" fill="#7044CC"/>
<path d="M22.9979 39.7277H21.1012V43.3523H22.9979V39.7277Z" fill="#7044CC"/>
<path d="M15.8953 42.909L14.9572 44.567L18.1305 46.3833L19.0686 44.7254L15.8953 42.909Z" fill="#7044CC"/>
<path d="M18.3467 48.8088L15.173 50.6244L16.1108 52.2826L19.2844 50.467L18.3467 48.8088Z" fill="#7044CC"/>
<path d="M26.4014 48.4718L25.4635 50.13L28.6371 51.946L29.5751 50.2878L26.4014 48.4718Z" fill="#7044CC"/>
<path d="M28.4145 42.5772L25.2412 44.3935L26.1794 46.0515L29.3526 44.2351L28.4145 42.5772Z" fill="#7044CC"/>
<path d="M27.6923 58.6616L16.7861 58.5662L22.334 49.2662L27.6923 58.6616ZM20.1528 56.6585L24.4205 56.7062L22.334 53.0339L20.1528 56.6585Z" fill="#7044CC"/>
<path d="M21.3416 57.5361L21.3007 61.9715L23.1975 61.9892L23.2384 57.5538L21.3416 57.5361Z" fill="#7044CC"/>
</g>
<defs>
<clipPath id="clip0_1_138">
<rect width="45" height="62" fill="white"/>
</clipPath>
</defs>
</svg>
