<svg width="26" height="26" viewBox="0 0 26 26" fill="none" xmlns="http://www.w3.org/2000/svg">
<path d="M23.3773 7.42602C23.5289 6.92227 23.3773 6.55286 22.6601 6.55286H20.2844C19.6799 6.55286 19.4036 6.87244 19.2519 7.22344C19.2519 7.22344 18.044 10.169 16.3324 12.0789C15.7799 12.6347 15.5274 12.8102 15.2263 12.8102C15.0757 12.8102 14.8569 12.6347 14.8569 12.1309V7.42602C14.8569 6.82152 14.6824 6.55286 14.1787 6.55286H10.4455C10.0685 6.55286 9.84102 6.83236 9.84102 7.09886C9.84102 7.67086 10.6969 7.80302 10.7846 9.41502V12.912C10.7846 13.6779 10.647 13.8177 10.3437 13.8177C9.53877 13.8177 7.5801 10.8613 6.41769 7.47694C6.19127 6.81936 5.96269 6.55394 5.35602 6.55394H2.98135C2.3021 6.55394 2.16669 6.87352 2.16669 7.22452C2.16669 7.85502 2.9716 10.975 5.9161 15.1014C7.8791 17.9192 10.6427 19.4467 13.1604 19.4467C14.6694 19.4467 14.8558 19.1076 14.8558 18.5226V16.3928C14.8558 15.7146 14.9999 15.5781 15.4776 15.5781C15.8286 15.5781 16.4331 15.7558 17.8425 17.1132C19.4524 18.723 19.7189 19.4456 20.6234 19.4456H22.9981C23.6763 19.4456 24.0154 19.1065 23.8204 18.437C23.6069 17.7708 22.8378 16.8012 21.8173 15.6539C21.2626 14.9996 20.4339 14.2954 20.1814 13.9434C19.8294 13.4894 19.9312 13.289 20.1814 12.886C20.1825 12.8871 23.0761 8.81161 23.3773 7.42602Z" fill="white"/>
</svg>
